<svg width="16" height="16" viewBox="0 0 16 16" fill="none" xmlns="http://www.w3.org/2000/svg">
<path fill-rule="evenodd" clip-rule="evenodd" d="M0.833008 8.00016C0.833008 4.04212 4.04163 0.833496 7.99967 0.833496C11.9577 0.833496 15.1663 4.04212 15.1663 8.00016C15.1663 11.9582 11.9577 15.1668 7.99967 15.1668C4.04163 15.1668 0.833008 11.9582 0.833008 8.00016ZM6.01263 4.24692C6.49725 3.69796 7.20831 3.35015 7.9998 3.35015C9.46335 3.35015 10.6498 4.5366 10.6498 6.00015C10.6498 6.73294 10.3515 7.39729 9.87131 7.87631C9.72753 8.01973 9.53723 8.13693 9.41149 8.21436L9.38114 8.23308C9.22938 8.32706 9.10614 8.40568 8.99672 8.50077C8.8123 8.66103 8.6498 8.87833 8.6498 9.33349C8.6498 9.69247 8.35878 9.98349 7.9998 9.98349C7.64081 9.98349 7.3498 9.69247 7.3498 9.33349C7.3498 8.45531 7.71263 7.89438 8.14399 7.51951C8.34175 7.34765 8.54825 7.21978 8.69514 7.12881L8.69671 7.12784C8.87179 7.01942 8.9282 6.98087 8.9532 6.95593C9.19892 6.71082 9.3498 6.37372 9.3498 6.00015C9.3498 5.25457 8.74538 4.65015 7.9998 4.65015C7.59672 4.65015 7.23553 4.82598 6.98721 5.10727C6.87245 5.23727 6.7827 5.38897 6.72477 5.55485C6.60642 5.89377 6.23574 6.07257 5.89682 5.95422C5.55791 5.83587 5.3791 5.46518 5.49745 5.12627C5.61188 4.79859 5.78849 4.50083 6.01263 4.24692ZM8.01973 12.267C8.46155 12.267 8.81973 11.9089 8.81973 11.467C8.81973 11.0252 8.46155 10.667 8.01973 10.667C7.5779 10.667 7.21973 11.0252 7.21973 11.467C7.21973 11.9089 7.5779 12.267 8.01973 12.267Z" fill="#744BF5"/>
</svg>
