<svg width="16" height="16" viewBox="0 0 16 16" fill="none" xmlns="http://www.w3.org/2000/svg">
<path fill-rule="evenodd" clip-rule="evenodd" d="M1.79981 6.25714C1.79981 2.80278 4.57428 0 7.99982 0C11.4254 0 14.1998 2.80278 14.1998 6.25627C14.2018 7.61156 13.7635 8.93028 12.9519 10.0103C11.4482 11.9967 7.99982 16 7.99982 16C6.2984 14.0492 4.61784 12.0709 3.0483 10.0119C2.23633 8.93138 1.79785 7.61212 1.79981 6.25714ZM12.7308 6.20439C12.7308 3.60497 10.6631 1.5 8.11538 1.5C5.56764 1.5 3.5 3.60497 3.5 6.2052C3.49853 7.22426 3.82544 8.21548 4.43037 9.02672L7.99999 13.5L11.9251 8.84945C12.4102 8.13247 12.6874 7.29189 12.7261 6.42233L12.7308 6.20439Z" fill="#474D5B"/>
<path d="M6 6H10" stroke="#474D5B" stroke-width="1.5"/>
</svg>
