<svg width="16" height="16" viewBox="0 0 16 16" fill="none" xmlns="http://www.w3.org/2000/svg">
<path d="M13 11.0641V13.5H3V11.0641L8 6.98718C7.18919 6.47436 6.10811 5.65385 6.10811 4.42308C6.10811 3.26923 6.91892 2.5 8 2.5C9.08108 2.5 9.89189 3.26923 9.89189 4.42308C9.89189 5.73052 8.81081 6.47436 8 6.98718L8.54054 7.29487L13 11.0641Z" fill="#474D5B"/>
<path d="M8 6.98718L3 11.0641V13.5H13V11.0641L8.54054 7.29487L8 6.98718ZM8 6.98718C7.18919 6.47436 6.10811 5.65385 6.10811 4.42308C6.10811 3.26923 6.91892 2.5 8 2.5C9.08108 2.5 9.89189 3.26923 9.89189 4.42308C9.89189 5.73052 8.81081 6.47436 8 6.98718Z" stroke="#474D5B" stroke-width="1.5"/>
</svg>
