<svg width="24" height="24" viewBox="0 0 24 24" fill="none" xmlns="http://www.w3.org/2000/svg">
<g opacity="0.3">
<path d="M24 12C24 18.6274 18.6274 24 12 24C5.37258 24 0 18.6274 0 12C0 5.37258 5.37258 0 12 0C18.6274 0 24 5.37258 24 12ZM2.15893 12C2.15893 17.4351 6.56493 21.8411 12 21.8411C17.4351 21.8411 21.8411 17.4351 21.8411 12C21.8411 6.56493 17.4351 2.15893 12 2.15893C6.56493 2.15893 2.15893 6.56493 2.15893 12Z" fill="white"/>
<path d="M24 12C24 18.6274 18.6274 24 12 24C5.37258 24 0 18.6274 0 12C0 5.37258 5.37258 0 12 0C18.6274 0 24 5.37258 24 12ZM2.15893 12C2.15893 17.4351 6.56493 21.8411 12 21.8411C17.4351 21.8411 21.8411 17.4351 21.8411 12C21.8411 6.56493 17.4351 2.15893 12 2.15893C6.56493 2.15893 2.15893 6.56493 2.15893 12Z" fill="url(#paint0_linear_69_403)"/>
</g>
<path d="M24 12C24 10.4241 23.6896 8.86371 23.0866 7.4078C22.4835 5.95189 21.5996 4.62902 20.4853 3.51472C19.371 2.40042 18.0481 1.5165 16.5922 0.913445C15.1363 0.310389 13.5759 -6.88831e-08 12 0L12 2.16121C13.292 2.16121 14.5714 2.4157 15.7651 2.91015C16.9588 3.40459 18.0435 4.12931 18.9571 5.04293C19.8707 5.95654 20.5954 7.04116 21.0899 8.23486C21.5843 9.42856 21.8388 10.708 21.8388 12H24Z" fill="white"/>
<path d="M24 12C24 10.4241 23.6896 8.86371 23.0866 7.4078C22.4835 5.95189 21.5996 4.62902 20.4853 3.51472C19.371 2.40042 18.0481 1.5165 16.5922 0.913445C15.1363 0.310389 13.5759 -6.88831e-08 12 0L12 2.16121C13.292 2.16121 14.5714 2.4157 15.7651 2.91015C16.9588 3.40459 18.0435 4.12931 18.9571 5.04293C19.8707 5.95654 20.5954 7.04116 21.0899 8.23486C21.5843 9.42856 21.8388 10.708 21.8388 12H24Z" fill="url(#paint1_linear_69_403)"/>
<defs>
<linearGradient id="paint0_linear_69_403" x1="12" y1="0" x2="12" y2="24" gradientUnits="userSpaceOnUse">
<stop stop-color="white"/>
<stop offset="1" stop-color="white" stop-opacity="0"/>
</linearGradient>
<linearGradient id="paint1_linear_69_403" x1="12" y1="0" x2="12" y2="24" gradientUnits="userSpaceOnUse">
<stop stop-color="white"/>
<stop offset="1" stop-color="white" stop-opacity="0"/>
</linearGradient>
</defs>
</svg>
