<svg width="24" height="24" viewBox="0 0 24 24" fill="none" xmlns="http://www.w3.org/2000/svg">
<path d="M21.25 16.5V21.25H2.75V16.5L12 10.5C10.5 9.5 8.5 7.9 8.5 5.5C8.5 3.25 10 1.75 12 1.75C14 1.75 15.5 3.25 15.5 5.5C15.5 8.04951 13.5 9.5 12 10.5L13 11.1L21.25 16.5Z" fill="black"/>
<path d="M12 10.5L2.75 16.5V21.25H21.25V16.5L13 11.1L12 10.5ZM12 10.5C10.5 9.5 8.5 7.9 8.5 5.5C8.5 3.25 10 1.75 12 1.75C14 1.75 15.5 3.25 15.5 5.5C15.5 8.04951 13.5 9.5 12 10.5Z" stroke="black" stroke-width="1.5"/>
</svg>
